<svg width="29" height="29" xmlns="http://www.w3.org/2000/svg" xmlns:xlink="http://www.w3.org/1999/xlink" xml:space="preserve" overflow="hidden"><defs><clipPath id="clip0"><rect x="0" y="0" width="29" height="29"/></clipPath></defs><g clip-path="url(#clip0)"><path d="M14.5 0C6.49187 0 0 6.49187 0 14.5 0 22.5081 6.49187 29 14.5 29 22.5081 29 29 22.5081 29 14.5 29.0011 6.49297 22.511 0.00109529 14.504 0 14.5026-2.38419e-07 14.5013-2.38419e-07 14.5 0ZM21.924 10.4916 12.6043 19.8538 12.5964 19.8538C12.3829 20.0765 12.095 20.2131 11.7874 20.2375 11.4745 20.2151 11.1823 20.0731 10.9714 19.841L7.0641 15.9356C6.95459 15.8283 6.9528 15.6526 7.0601 15.543 7.06142 15.5417 7.06275 15.5404 7.0641 15.539L8.30937 14.3017C8.41206 14.1938 8.58276 14.1896 8.69063 14.2923 8.69383 14.2954 8.69695 14.2985 8.7 14.3017L11.7953 17.397 20.3 8.82988C20.3521 8.77641 20.4236 8.74636 20.4983 8.7466L20.4983 8.7466C20.5735 8.74346 20.6462 8.77399 20.6966 8.82988L21.9161 10.092C22.0285 10.1938 22.037 10.3675 21.9352 10.4799 21.9316 10.4839 21.9278 10.4878 21.924 10.4916Z" fill="#43BBED"/></g></svg>